Coordinates
version=1
nRows=7
nColumns=40
inDegrees=yes

Units are S.I. units (second, meters, Newtons, ...)
Angles are in degrees.

endheader
time	pelvis_tilt	pelvis_list	pelvis_rotation	pelvis_tx	pelvis_ty	pelvis_tz	hip_flexion_r	hip_adduction_r	hip_rotation_r	knee_angle_r	knee_angle_r_beta	ankle_angle_r	subtalar_angle_r	mtp_angle_r	hip_flexion_l	hip_adduction_l	hip_rotation_l	knee_angle_l	knee_angle_l_beta	ankle_angle_l	subtalar_angle_l	mtp_angle_l	lumbar_extension	lumbar_bending	lumbar_rotation	arm_flex_r	arm_add_r	arm_rot_r	elbow_flex_r	pro_sup_r	wrist_flex_r	wrist_dev_r	arm_flex_l	arm_add_l	arm_rot_l	elbow_flex_l	pro_sup_l	wrist_flex_l	wrist_dev_l
     12.42828571	     -1.25499159	     -4.24815390	     -4.44344200	      0.96784282	      0.91340046	      0.38286097	     28.15833182	     -6.02146197	      0.00786451	     66.63758784	     66.63758784	      1.16990989	    -17.66493519	      0.35316463	     17.03588047	     -0.57525463	     -3.20946280	     34.79397741	     34.79397741	     22.43419947	    -18.41493818	     10.51165748	    -11.29549463	      7.68044317	      2.58678512	      2.21811422	    -12.89322322	    -14.82054777	     21.11840579	     47.27864856	      0.00000000	      0.00000000	     25.72149788	    -16.13118760	     13.08404755	     40.23363086	     45.95091573	      0.00000000	      0.00000000
     12.45157143	     -1.53835355	     -4.32875724	     -5.18411765	      0.96707952	      0.91428604	      0.38237624	     29.11653943	     -5.83564672	     -0.33506222	     64.59457171	     64.59457171	      2.19598476	    -17.79711639	      0.36580440	     16.67127404	     -0.74193852	     -3.85958128	     34.21321756	     34.21321756	     22.51354823	    -18.35043502	     10.60992147	    -11.12148490	      7.86093650	      1.67472697	     -0.57692606	    -12.82855793	    -14.96421957	     20.21086472	     47.30434405	      0.00000000	      0.00000000	     27.46424760	    -17.77283568	     12.44888201	     40.82057265	     46.04116601	      0.00000000	      0.00000000
     12.47485714	     -1.71323269	     -4.38945752	     -6.04490689	      0.96622672	      0.91593458	      0.38242560	     29.66435009	     -5.54141126	     -0.57839839	     61.61863815	     61.61863815	      3.19885912	    -17.64559653	      0.20944414	     15.92664850	     -0.93709054	     -4.73743484	     33.15168160	     33.15168160	     22.30968430	    -18.18083788	     10.21531331	    -11.23069653	      7.88188530	      2.42198297	     -4.60439665	    -12.78021078	    -15.50441875	     20.44887654	     47.30353540	      0.00000000	      0.00000000	     29.34025783	    -17.99314437	     10.16795495	     43.67930554	     46.32684788	      0.00000000	      0.00000000
     12.49814286	     -2.05039287	     -4.49449500	     -6.88093623	      0.96509976	      0.91770930	      0.38287440	     30.02214494	     -5.19921739	     -1.00532105	     57.70969932	     57.70969932	      3.60582337	    -17.30435249	     -1.56668657	     15.29510401	     -1.21591563	     -5.60492169	     31.91837984	     31.91837984	     21.68120905	    -18.04538848	      9.06732936	    -11.24622607	      8.00212322	      2.04525118	     -8.12873116	    -12.64592009	    -16.15067557	     22.76417989	     47.20880729	      0.00000000	      0.00000000	     30.41297698	    -18.73812515	      5.97182283	     46.12327022	     46.76761108	      0.00000000	      0.00000000
     12.52142857	     -2.37843003	     -4.58306803	     -7.72351709	      0.96387576	      0.91959211	      0.38373127	     30.14353763	     -4.75648450	     -1.30805535	     53.27425404	     53.27425404	      4.37154544	    -16.23616591	     -1.96923843	     14.62764104	     -1.47457108	     -6.47514965	     30.66355517	     30.66355517	     21.45820739	    -17.76297964	      9.08948279	    -11.16615236	      8.06405900	      1.96321163	    -10.56890568	    -12.50684224	    -16.13672948	     22.35562341	     47.19614721	      0.00000000	      0.00000000	     32.25050999	    -19.73609284	      4.91008312	     47.36445167	     46.89433238	      0.00000000	      0.00000000
     12.54471429	     -2.84253615	     -4.59094779	     -8.59262396	      0.96244715	      0.92112666	      0.38495597	     30.14174591	     -4.44028876	     -1.79337988	     48.21724317	     48.21724317	      4.03050618	    -14.72384277	     -4.20557285	     14.11807795	     -1.71156378	     -7.47403963	     29.36549856	     29.36549856	     20.81346417	    -17.50631696	      7.95728398	    -11.02906570	      7.98248206	      2.06171960	    -13.65495506	    -12.29224328	    -16.00267494	     24.21606735	     47.04446592	      0.00000000	      0.00000000	     33.44188836	    -20.10428037	      1.76328691	     50.00938100	     47.20626956	      0.00000000	      0.00000000
     12.56800000	     -3.22975738	     -4.70855272	     -9.36081704	      0.96106770	      0.92269091	      0.38647204	     29.78138763	     -3.92949586	     -2.25494884	     42.88837189	     42.88837189	      4.07186523	    -12.55241967	     -3.92147509	     13.59413901	     -2.03707150	     -8.30192804	     28.26912384	     28.26912384	     20.65176679	    -17.14589270	      7.97337129	    -10.85636433	      8.03908710	      1.79974972	    -15.33058716	    -12.10081821	    -15.93068682	     24.08376200	     47.02245113	      0.00000000	      0.00000000	     35.00165883	    -21.20147312	      0.99225158	     50.91165477	     47.29401116	      0.00000000	      0.00000000
